D:\PredSimResults\Vitruvian_Man\IG_v18ms_ATx70.mot
version=1
nRows=12
nColumns=31
inDegrees=yes
endheader
                time	         pelvis_tilt	           pelvis_tx	           pelvis_ty	       hip_flexion_r	        knee_angle_r	       ankle_angle_r	       hip_flexion_l	        knee_angle_l	       ankle_angle_l	    lumbar_extension	          arm_flex_r	          arm_flex_l	hamstrings_r/activation	bifemsh_r/activation	glut_max_r/activation	iliopsoas_r/activation	rect_fem_r/activation	  vasti_r/activation	gastroc_r/activation	 soleus_r/activation	tib_ant_r/activation	hamstrings_l/activation	bifemsh_l/activation	glut_max_l/activation	iliopsoas_l/activation	rect_fem_l/activation	  vasti_l/activation	gastroc_l/activation	 soleus_l/activation	tib_ant_l/activation	
          0.40567078	        -11.33303174	          0.73020740	          0.97996544	         -4.10822449	        -13.54219685	         -7.59759143	         29.87426214	          1.86855857	          4.20487558	         -2.94318479	          6.35878002	          6.33848993	          0.05000069	          0.14749573	          0.05000032	          0.58524726	          0.05000190	          0.05000026	          0.28336375	          0.21078001	          0.05000012	          0.62100445	          0.05000476	          0.14921455	          0.05000240	          0.06443923	          0.07244424	          0.05000066	          0.06443553	          0.54020783	
          0.41378420	        -11.62620287	          0.74895867	          0.97792981	         -3.17904219	        -16.29658492	         -9.36844442	         29.03598238	          2.39492885	          3.36356343	         -1.95494544	          5.62288534	          5.60242434	          0.05000026	          0.12992695	          0.05000021	          0.51553486	          0.11673091	          0.05000022	          0.24961055	          0.18567269	          0.05000054	          0.54703438	          0.05000218	          0.16989709	          0.05000070	          0.05676372	          0.06383117	          0.05676093	          0.05676131	          0.70160607	
          0.42189761	        -11.90414147	          0.76768366	          0.97588540	         -2.06984932	        -19.27393730	        -11.61968968	         28.21237295	          2.50140318	          2.44389763	         -0.97134081	          4.87784243	          4.85728730	          0.05524259	          0.11445099	          0.05000119	          0.45412631	          0.13709303	          0.05000020	          0.21987792	          0.16355606	          0.28257152	          0.48187387	          0.12769260	          0.21592123	          0.05000023	          0.05000246	          0.05622998	          0.05000025	          0.05000018	          0.80635012	
          0.43001103	        -12.17849516	          0.78600362	          0.97413700	         -0.78628906	        -22.38517454	        -14.17078229	         27.36833117	          2.82787910	          0.57467897	         -0.03575366	          4.17843141	          4.15787003	          0.05000051	          0.10081868	          0.05000049	          0.40003252	          0.25138398	          0.05000017	          0.19368710	          0.14407390	          0.24891268	          0.42447501	          0.12163611	          0.22666755	          0.05000025	          0.05000055	          0.05000445	          0.05000029	          0.05000010	          0.87432626	
          0.43812444	        -12.44183518	          0.80371750	          0.97287940	          0.60523066	        -25.51917374	        -15.64445838	         26.55025093	          3.23068313	         -1.80554366	          0.81119650	          3.55771896	          3.53724548	          0.05000059	          0.08881084	          0.05000035	          0.35238218	          0.32561602	          0.05000019	          0.17061595	          0.12691238	          0.29729112	          0.37391342	          0.10714960	          0.22633394	          0.05000031	          0.05000088	          0.05001195	          0.05000034	          0.05000014	          0.91844100	
          0.44623786	        -12.68618396	          0.82081051	          0.97225667	          2.03433167	        -28.51589003	        -15.87678395	         25.78020370	          3.52641174	         -3.88698579	          1.55299570	          3.02150714	          3.00122098	          0.05000077	          0.10337920	          0.05000027	          0.31040778	          0.40652332	          0.05000012	          0.15029295	          0.11179507	          0.42082495	          0.32937472	          0.09438813	          0.23053619	          0.05000034	          0.05000089	          0.05001081	          0.05000036	          0.05000016	          0.94707029	
          0.45435127	        -12.90604682	          0.83734642	          0.97232709	          3.44467130	        -31.21048357	        -15.57640790	         25.03946481	          3.71247093	         -5.52232103	          2.18786600	          2.56355491	          2.54355704	          0.05000087	          0.13207701	          0.05000026	          0.27343324	          0.47357363	          0.05000012	          0.13239075	          0.09847848	          0.41329779	          0.29014116	          0.08314636	          0.23541940	          0.05000035	          0.05000091	          0.05001274	          0.05000040	          0.05000018	          0.96564994	
          0.46246469	        -13.09518534	          0.85341200	          0.97306867	          4.79755454	        -33.51404160	        -15.10134562	         24.30688400	          3.79587810	         -6.61148072	          2.71751437	          2.17457293	          2.15496162	          0.05000104	          0.16313590	          0.05000027	          0.24086306	          0.52262066	          0.05000012	          0.11662100	          0.08674812	          0.41312360	          0.25558083	          0.07324349	          0.23972214	          0.05000033	          0.05000087	          0.05001647	          0.05000046	          0.05000021	          0.97770761	
          0.47057810	        -13.24698237	          0.86908461	          0.97442953	          6.06937818	        -35.40080079	        -14.47063114	         23.56098817	          3.79184519	         -7.10324193	          3.14263491	          1.84675418	          1.82762303	          0.05000091	          0.20573969	          0.05000028	          0.21217329	          0.55189219	          0.05000015	          0.10272967	          0.07641503	          0.40112293	          0.22513713	          0.06452022	          0.23740165	          0.05000033	          0.05000089	          0.05002285	          0.05000060	          0.05000030	          0.98553267	
          0.47869152	        -13.35516668	          0.88442414	          0.97635058	          7.24977734	        -36.88117339	        -13.67867168	         22.77976469	          3.72947589	         -7.03009862	          3.46236011	          1.57472978	          1.55616699	          0.05000115	          0.26464898	          0.05000030	          0.19872778	          0.56042693	          0.05000017	          0.09049302	          0.06731279	          0.38660754	          0.19831976	          0.05683632	          0.23127302	          0.05000031	          0.05000085	          0.05004616	          0.05000098	          0.05000059	          0.99061057	
          0.48680494	        -13.41441433	          0.89947796	          0.97875163	          8.34105557	        -37.99315682	        -12.80989654	         21.94505145	          3.64284029	         -6.50397553	          3.67572145	          1.35468397	          1.33677118	          0.05000097	          0.33688624	          0.05000032	          0.19711832	          0.55401711	          0.05000020	          0.07971395	          0.05929478	          0.36761893	          0.17469677	          0.05006909	          0.21743000	          0.05000030	          0.05000083	          0.05027258	          0.05000158	          0.05000079	          0.90094875	
          0.49491835	        -13.42073086	          0.91428749	          0.98150674	          9.35587696	        -38.80600170	        -11.89409546	         21.04417905	          3.57599039	         -5.78315186	          3.78314275	          1.18332159	          1.16613207	          0.05000083	          0.41794488	          0.05000033	          0.20050181	          0.53573588	          0.05000023	          0.07021887	          0.05223188	          0.34982676	          0.15388768	          0.05000758	          0.20053365	          0.05000030	          0.05000080	          0.05042291	          0.06203398	          0.05000065	          0.79364117	
